<svg xmlns="http://www.w3.org/2000/svg" viewBox="0 0 60 40">
  <rect x="0" y="0" width="60" height="13.33" fill="#D01B2A"/>
  <rect x="0" y="13.33" width="60" height="13.34" fill="#FFFFFF"/>
  <rect x="0" y="26.67" width="60" height="13.33" fill="#007C3D"/>
  <g transform="translate(30,20)" fill="none" stroke="#F7C000" stroke-width="1.5" stroke-linecap="round">
    <line x1="0" y1="-8.5" x2="0" y2="-13"/>
    <line x1="0" y1="-8.5" x2="0" y2="-13" transform="rotate(17.14)"/>
    <line x1="0" y1="-8.5" x2="0" y2="-13" transform="rotate(34.29)"/>
    <line x1="0" y1="-8.5" x2="0" y2="-13" transform="rotate(51.43)"/>
    <line x1="0" y1="-8.5" x2="0" y2="-13" transform="rotate(68.57)"/>
    <line x1="0" y1="-8.5" x2="0" y2="-13" transform="rotate(85.71)"/>
    <line x1="0" y1="-8.5" x2="0" y2="-13" transform="rotate(102.86)"/>
    <line x1="0" y1="-8.5" x2="0" y2="-13" transform="rotate(120)"/>
    <line x1="0" y1="-8.5" x2="0" y2="-13" transform="rotate(137.14)"/>
    <line x1="0" y1="-8.5" x2="0" y2="-13" transform="rotate(154.29)"/>
    <line x1="0" y1="-8.5" x2="0" y2="-13" transform="rotate(171.43)"/>
    <line x1="0" y1="-8.5" x2="0" y2="-13" transform="rotate(188.57)"/>
    <line x1="0" y1="-8.5" x2="0" y2="-13" transform="rotate(205.71)"/>
    <line x1="0" y1="-8.5" x2="0" y2="-13" transform="rotate(222.86)"/>
    <line x1="0" y1="-8.5" x2="0" y2="-13" transform="rotate(240)"/>
    <line x1="0" y1="-8.5" x2="0" y2="-13" transform="rotate(257.14)"/>
    <line x1="0" y1="-8.5" x2="0" y2="-13" transform="rotate(274.29)"/>
    <line x1="0" y1="-8.5" x2="0" y2="-13" transform="rotate(291.43)"/>
    <line x1="0" y1="-8.5" x2="0" y2="-13" transform="rotate(308.57)"/>
    <line x1="0" y1="-8.5" x2="0" y2="-13" transform="rotate(325.71)"/>
    <line x1="0" y1="-8.5" x2="0" y2="-13" transform="rotate(342.86)"/>
  </g>
  <circle cx="30" cy="20" r="6.5" fill="#F7C000"/>
</svg>
